<svg width="26" height="28" viewBox="0 0 26 28" fill="none" xmlns="http://www.w3.org/2000/svg">
<g filter="url(#filter0_d_1_12542)">
<path d="M21 23V21C21 19.9391 20.5786 18.9217 19.8284 18.1716C19.0783 17.4214 18.0609 17 17 17H9C7.93913 17 6.92172 17.4214 6.17157 18.1716C5.42143 18.9217 5 19.9391 5 21V23" stroke="#30628C" stroke-width="2" stroke-linecap="round" stroke-linejoin="round"/>
<path d="M13 13C15.2091 13 17 11.2091 17 9C17 6.79086 15.2091 5 13 5C10.7909 5 9 6.79086 9 9C9 11.2091 10.7909 13 13 13Z" stroke="#30628C" stroke-width="2" stroke-linecap="round" stroke-linejoin="round"/>
</g>
<defs>
<filter id="filter0_d_1_12542" x="-3" y="-2" width="32" height="32" filterUnits="userSpaceOnUse" color-interpolation-filters="sRGB">
<feFlood flood-opacity="0" result="BackgroundImageFix"/>
<feColorMatrix in="SourceAlpha" type="matrix" values="0 0 0 0 0 0 0 0 0 0 0 0 0 0 0 0 0 0 127 0" result="hardAlpha"/>
<feOffset/>
<feGaussianBlur stdDeviation="2"/>
<feComposite in2="hardAlpha" operator="out"/>
<feColorMatrix type="matrix" values="0 0 0 0 0 0 0 0 0 0 0 0 0 0 0 0 0 0 0.15 0"/>
<feBlend mode="normal" in2="BackgroundImageFix" result="effect1_dropShadow_1_12542"/>
<feBlend mode="normal" in="SourceGraphic" in2="effect1_dropShadow_1_12542" result="shape"/>
</filter>
</defs>
</svg>
